<?xml version="1.0" encoding="utf-8"?>
<!-- Generator: Adobe Illustrator 19.0.0, SVG Export Plug-In . SVG Version: 6.00 Build 0)  -->
<svg version="1.1" id="圖層_1" xmlns="http://www.w3.org/2000/svg" xmlns:xlink="http://www.w3.org/1999/xlink" x="0px" y="0px"
	 viewBox="0 0 1105.5 796.5" style="enable-background:new 0 0 1105.5 796.5;" xml:space="preserve">
<style type="text/css">
	.st0{fill:#EFEFEF;}
	.st1{fill:#FFFFFF;}
	.st2{fill:#64C896;}
	.st3{font-family:'Consolas-Bold';}
	.st4{font-size:28px;}
	.st5{fill:#CEC6C0;}
	.st6{fill:#ED852F;}
	.st7{fill:none;stroke:#64C896;stroke-miterlimit:10;}
	.st8{fill:none;}
	.st9{fill:#231815;}
	.st10{font-family:'Consolas';}
	.st11{font-size:24px;}
	.st12{letter-spacing:22;}
	.st13{fill:#006699;}
	.st14{fill:none;stroke:#221714;stroke-miterlimit:10;stroke-dasharray:12;}
</style>
<rect id="XMLID_5_" x="1" y="-1" class="st0" width="1106" height="798.4"/>
<g id="XMLID_82_">
	<rect id="XMLID_48_" x="21.3" y="64.8" class="st1" width="682.9" height="612.9"/>
	<g id="XMLID_44_">
		<path id="XMLID_45_" class="st2" d="M703.7,65.3v611.9H21.8V65.3H703.7 M704.7,64.3H20.8v613.9h683.9V64.3L704.7,64.3z"/>
	</g>
</g>
<g id="XMLID_75_">
	<rect id="XMLID_58_" x="728.1" y="64.8" class="st1" width="340.9" height="461"/>
	<g id="XMLID_53_">
		<path id="XMLID_54_" class="st2" d="M1068.5,65.3v460H728.6v-460H1068.5 M1069.5,64.3H727.6v462h341.9V64.3L1069.5,64.3z"/>
	</g>
</g>
<g id="XMLID_68_">
	<rect id="XMLID_93_" x="728.1" y="575.7" class="st1" width="344.5" height="175.7"/>
	<g id="XMLID_89_">
		<path id="XMLID_90_" class="st2" d="M1072.1,576.2v174.7H728.6V576.2H1072.1 M1073.1,575.2H727.6v176.7h345.5V575.2L1073.1,575.2z
			"/>
	</g>
</g>
<g id="XMLID_64_">
	<rect id="XMLID_87_" x="21.3" y="693.5" class="st1" width="682.9" height="57.9"/>
	<g id="XMLID_83_">
		<path id="XMLID_84_" class="st2" d="M703.7,694v56.9H21.8V694H703.7 M704.7,693H20.8v58.9h683.9V693L704.7,693z"/>
	</g>
</g>
<rect id="XMLID_60_" x="20.8" y="29.3" class="st2" width="683.9" height="35"/>
<rect id="XMLID_59_" x="727.6" y="29.3" class="st2" width="341.9" height="35"/>
<g id="XMLID_56_">
	<text id="XMLID_29_" transform="matrix(1 0 0 1 33.3696 57.9404)" class="st1 st3 st4">Code</text>
</g>
<rect id="XMLID_43_" x="727.6" y="540.2" class="st2" width="345.5" height="35"/>
<polygon id="XMLID_41_" class="st5" points="71.2,148.2 49.5,148.2 49.5,138.2 70.4,138.2 80,143.2 "/>
<polygon id="XMLID_42_" class="st6" points="71.2,203.8 49.5,203.8 49.5,193.8 70.4,193.8 80,198.8 "/>
<line id="XMLID_40_" class="st7" x1="80" y1="73.9" x2="80" y2="663.6"/>
<g id="XMLID_16_">
	<text id="XMLID_27_" transform="matrix(1 0 0 1 743.5193 55.8789)" class="st1 st3 st4">Memory</text>
</g>
<g id="XMLID_12_">
	<text id="XMLID_25_" transform="matrix(1 0 0 1 743.5193 566.8497)" class="st1 st3 st4">Screen</text>
</g>
<rect id="XMLID_2_" x="95" y="73.9" class="st8" width="586.7" height="589.7"/>
<text id="XMLID_3_" transform="matrix(1 0 0 1 94.981 93.5093)"><tspan x="0" y="0" class="st9 st10 st11">#include &lt;stdio.h&gt;</tspan><tspan x="0" y="28.8" class="st9 st10 st11">#include &lt;string.h&gt;</tspan><tspan x="0" y="57.6" class="st9 st10 st11">int main()</tspan><tspan x="0" y="86.4" class="st9 st10 st11">{</tspan><tspan x="0" y="115.2" class="st9 st10 st11 st12">	</tspan><tspan x="36" y="115.2" class="st9 st10 st11">struct Person</tspan><tspan x="0" y="144" class="st9 st10 st11 st12">	</tspan><tspan x="36" y="144" class="st9 st10 st11">{</tspan><tspan x="0" y="172.8" class="st9 st10 st11 st12">		</tspan><tspan x="72" y="172.8" class="st9 st10 st11">int grade;</tspan><tspan x="0" y="201.6" class="st9 st10 st11 st12">		</tspan><tspan x="72" y="201.6" class="st9 st10 st11">char id[10];</tspan><tspan x="0" y="230.4" class="st9 st10 st11 st12">	</tspan><tspan x="36" y="230.4" class="st9 st10 st11">};</tspan><tspan x="0" y="259.2" class="st9 st10 st11 st12">	</tspan><tspan x="36" y="259.2" class="st9 st10 st11">struct Person p1,p2= {4,&quot;@111&quot;};</tspan><tspan x="0" y="316.8" class="st9 st10 st11 st12">	</tspan><tspan x="36" y="316.8" class="st9 st10 st11">p1.grade = 10;</tspan><tspan x="0" y="345.6" class="st9 st10 st11 st12">	</tspan><tspan x="36" y="345.6" class="st9 st10 st11">strcpy(p1.id,&quot;@132&quot;);</tspan><tspan x="0" y="403.2" class="st9 st10 st11 st12">	</tspan><tspan x="36" y="403.2" class="st9 st10 st11">printf(&quot;</tspan><tspan x="141.6" y="403.2" class="st13 st10 st11">%d %s</tspan><tspan x="207.5" y="403.2" class="st9 st10 st11">\n&quot;,p1.grade,p1.id);</tspan><tspan x="0" y="432" class="st9 st10 st11 st12">	</tspan><tspan x="36" y="432" class="st9 st10 st11">printf(”</tspan><tspan x="141.6" y="432" class="st13 st10 st11">%d %s</tspan><tspan x="207.5" y="432" class="st9 st10 st11">\n”,p2.grade,p2.id);</tspan><tspan x="0" y="489.6" class="st9 st10 st11 st12">	</tspan><tspan x="36" y="489.6" class="st13 st10 st11">return 0</tspan><tspan x="141.6" y="489.6" class="st9 st10 st11">;</tspan><tspan x="0" y="518.4" class="st9 st10 st11">}</tspan></text>
<path id="XMLID_x5F_4_x5F_" class="st8" d="M49.5,730.9h632.1"/>
<text id="XMLID_10_"><textPath  xlink:href="#XMLID_x5F_4_x5F_" startOffset="5.505%">
<tspan  class="st10 st11">Define the structure named “Person”</tspan></textPath>
</text>
<rect id="XMLID_14_" x="772.8" y="69.3" class="st14" width="247.8" height="102.2"/>
<rect id="XMLID_19_" x="846.1" y="171.6" class="st8" width="84.4" height="22.2"/>
<text id="XMLID_18_" transform="matrix(1 0 0 1 846.1113 191.2139)" class="st10 st11">Person</text>
</svg>
